<svg width="418" height="65" xmlns="http://www.w3.org/2000/svg" xmlns:xlink="http://www.w3.org/1999/xlink" overflow="hidden"><defs><clipPath id="clip0"><rect x="193" y="63" width="418" height="65"/></clipPath></defs><g clip-path="url(#clip0)" transform="translate(-193 -63)"><path d="M557.5 95.5001 595.3 95.5002" stroke="#7F7F7F" stroke-width="1.33333" stroke-miterlimit="8" fill="none" fill-rule="evenodd"/><path d="M0 14.9999 15.7211 0 60 0 44.2789 14.9999Z" stroke="#7F7F7F" stroke-width="1.33333" stroke-miterlimit="8" fill="none" fill-rule="evenodd" transform="matrix(-1.83697e-16 -1 -1 1.83697e-16 209.5 125.5)"/><path d="M247.5 81.4949 263.495 65.5001 307.5 65.5001 307.5 109.505 291.505 125.5 247.5 125.5ZM247.5 81.4949 291.505 81.4949 307.5 65.5001M291.505 81.4949 291.505 125.5" stroke="#7F7F7F" stroke-width="1.33333" stroke-miterlimit="8" fill="none" fill-rule="evenodd"/><path d="M353.5 85.4962 365.496 73.5001 398.5 73.5001 398.5 106.504 386.504 118.5 353.5 118.5ZM353.5 85.4962 386.504 85.4962 398.5 73.5001M386.504 85.4962 386.504 118.5" stroke="#7F7F7F" stroke-width="1.33333" stroke-miterlimit="8" fill="none" fill-rule="evenodd"/><path d="M451.5 85.4962 463.496 73.5001 496.5 73.5001 496.5 106.504 484.504 118.5 451.5 118.5ZM451.5 85.4962 484.504 85.4962 496.5 73.5001M484.504 85.4962 484.504 118.5" stroke="#7F7F7F" stroke-width="1.33333" stroke-miterlimit="8" fill="none" fill-rule="evenodd"/><rect x="542.5" y="65.5001" width="15" height="60" stroke="#7F7F7F" stroke-width="1.33333" stroke-miterlimit="8" fill="none"/><rect x="595.5" y="88.5001" width="15" height="15" stroke="#7F7F7F" stroke-width="1.33333" stroke-miterlimit="8" fill="none"/><path d="M490.5 95.5001 542.221 95.5002" stroke="#7F7F7F" stroke-width="1.33333" stroke-miterlimit="8" fill="none" fill-rule="evenodd"/><path d="M394.5 95.5001 450.75 95.5002" stroke="#7F7F7F" stroke-width="1.33333" stroke-miterlimit="8" fill="none" fill-rule="evenodd"/><path d="M301.5 95.5001 353.229 95.5002" stroke="#7F7F7F" stroke-width="1.33333" stroke-miterlimit="8" fill="none" fill-rule="evenodd"/><path d="M202.5 95.5001 247.724 95.5002" stroke="#7F7F7F" stroke-width="1.33333" stroke-miterlimit="8" fill="none" fill-rule="evenodd"/></g></svg>