<svg width="773" height="463" xmlns="http://www.w3.org/2000/svg" xmlns:xlink="http://www.w3.org/1999/xlink" overflow="hidden"><defs><clipPath id="clip0"><rect x="178" y="79" width="773" height="463"/></clipPath></defs><g clip-path="url(#clip0)" transform="translate(-178 -79)"><path d="M257.5 323.746 261.746 319.5 272.5 319.5 272.5 338.254 268.254 342.5 257.5 342.5ZM257.5 323.746 268.254 323.746 272.5 319.5M268.254 323.746 268.254 342.5" stroke="#7F7F7F" stroke-width="1.33333" stroke-miterlimit="8" fill="none" fill-rule="evenodd"/><text font-family="Calibri,Calibri_MSFontService,sans-serif" font-weight="400" font-size="14" transform="translate(214.91 327)">Input<tspan x="0.666672" y="17">(·, </tspan><tspan font-style="italic" x="15" y="17">in</tspan><tspan x="25.3333" y="17">)</tspan></text><path d="M371.5 187.746 375.746 183.5 386.5 183.5 386.5 291.254 382.254 295.5 371.5 295.5ZM371.5 187.746 382.254 187.746 386.5 183.5M382.254 187.746 382.254 295.5" stroke="#7F7F7F" stroke-width="1.33333" stroke-miterlimit="8" fill="none" fill-rule="evenodd"/><text font-family="Calibri,Calibri_MSFontService,sans-serif" font-weight="400" font-size="14" transform="translate(343.635 158)">Dense<tspan x="38.6667" y="0">(</tspan><tspan fill="#FD9734" x="42.8333" y="0">relu</tspan><tspan x="65.1667" y="0">)</tspan><tspan x="-6.16669" y="17">(·, </tspan><tspan font-style="italic" x="8.16666" y="17">in</tspan><tspan x="18.5" y="17">) </tspan><tspan font-family="Wingdings,Wingdings_MSFontService,sans-serif" x="25.8333" y="17"></tspan><tspan x="42.6667" y="17">(</tspan><tspan x="46.8333" y="17">·, 64</tspan>)</text><path d="M475.5 187.746 479.746 183.5 490.5 183.5 490.5 291.254 486.254 295.5 475.5 295.5ZM475.5 187.746 486.254 187.746 490.5 183.5M486.254 187.746 486.254 295.5" stroke="#7F7F7F" stroke-width="1.33333" stroke-miterlimit="8" fill="none" fill-rule="evenodd"/><text font-family="Calibri,Calibri_MSFontService,sans-serif" font-weight="400" font-size="14" transform="translate(447.669 158)">Dense<tspan x="38.6667" y="0">(</tspan><tspan fill="#FD9734" x="42.8333" y="0">relu</tspan><tspan x="65.1667" y="0">)</tspan><tspan x="-8.16669" y="17">(·, 64) </tspan><tspan font-family="Wingdings,Wingdings_MSFontService,sans-serif" x="27.8333" y="17"></tspan><tspan x="44.6667" y="17">(</tspan><tspan x="48.8333" y="17">·, 64</tspan><tspan x="73.3333" y="17">)</tspan></text><path d="M582.5 290.198 584.198 288.5 598.5 288.5 598.5 292.802 596.802 294.5 582.5 294.5ZM582.5 290.198 596.802 290.198 598.5 288.5M596.802 290.198 596.802 294.5" stroke="#7F7F7F" stroke-width="1.33333" stroke-miterlimit="8" fill="none" fill-rule="evenodd"/><text font-family="Calibri,Calibri_MSFontService,sans-serif" font-weight="400" font-size="14" transform="translate(570.422 258)">Dense<tspan x="-27.4133" y="17">(·, 64) </tspan><tspan font-family="Wingdings,Wingdings_MSFontService,sans-serif" x="8.58667" y="17"></tspan><tspan x="25.42" y="17">(</tspan><tspan x="29.5867" y="17">·, </tspan><tspan font-style="italic" x="39.7534" y="17">out</tspan>)</text><rect x="384" y="186" width="90" height="108" fill="#737373" fill-opacity="0.301961"/><path d="M369.5 361.746 373.746 357.5 384.5 357.5 384.5 376.254 380.254 380.5 369.5 380.5ZM369.5 361.746 380.254 361.746 384.5 357.5M380.254 361.746 380.254 380.5" stroke="#7F7F7F" stroke-width="1.33333" stroke-miterlimit="8" fill="none" fill-rule="evenodd"/><path d="M475.5 361.746 479.746 357.5 490.5 357.5 490.5 409.254 486.254 413.5 475.5 413.5ZM475.5 361.746 486.254 361.746 490.5 357.5M486.254 361.746 486.254 413.5" stroke="#7F7F7F" stroke-width="1.33333" stroke-miterlimit="8" fill="none" fill-rule="evenodd"/><path d="M582.5 362.029 587.029 357.5 598.5 357.5 598.5 408.971 593.971 413.5 582.5 413.5ZM582.5 362.029 593.971 362.029 598.5 357.5M593.971 362.029 593.971 413.5" stroke="#7F7F7F" stroke-width="1.33333" stroke-miterlimit="8" fill="none" fill-rule="evenodd"/><path d="M690.5 409.915 691.915 408.5 705.5 408.5 705.5 412.085 704.085 413.5 690.5 413.5ZM690.5 409.915 704.085 409.915 705.5 408.5M704.085 409.915 704.085 413.5" stroke="#7F7F7F" stroke-width="1.33333" stroke-miterlimit="8" fill="none" fill-rule="evenodd"/><text font-family="Calibri,Calibri_MSFontService,sans-serif" font-weight="400" font-size="14" transform="translate(679.843 436)">Dense<tspan x="-27.4133" y="17">(·, 32) </tspan><tspan font-family="Wingdings,Wingdings_MSFontService,sans-serif" x="8.58667" y="17"></tspan><tspan x="25.42" y="17">(</tspan><tspan x="29.5867" y="17">·, </tspan><tspan font-style="italic" x="39.7534" y="17">out</tspan>)<tspan x="-119.842" y="0">Dense</tspan><tspan x="-81.1755" y="0">(</tspan><tspan fill="#08C6EF" x="-77.0089" y="0">elu</tspan>)<tspan x="-130.422" y="17">(·, 32) </tspan><tspan font-family="Wingdings,Wingdings_MSFontService,sans-serif" x="-94.4222" y="17"></tspan><tspan x="-77.5889" y="17">(</tspan><tspan x="-73.4222" y="17">·, 32</tspan>)<tspan x="-232.064" y="0">Dense</tspan><tspan x="-193.398" y="0">(</tspan><tspan fill="#08C6EF" x="-189.231" y="0">elu</tspan>)<tspan x="-240.644" y="17">(·, </tspan><tspan font-style="italic" x="-226.311" y="17">in</tspan><tspan x="-215.978" y="17">) </tspan><tspan font-family="Wingdings,Wingdings_MSFontService,sans-serif" x="-208.644" y="17"></tspan><tspan x="-191.811" y="17">(</tspan><tspan x="-187.644" y="17">·, 32</tspan><tspan x="-163.144" y="17">)</tspan><tspan x="-339.961" y="-39">Dropout</tspan><tspan x="-289.294" y="-39">(0.2)</tspan><tspan x="-340.374" y="-22">(·, </tspan><tspan font-style="italic" x="-326.041" y="-22">in</tspan>) <tspan font-family="Wingdings,Wingdings_MSFontService,sans-serif" x="-308.374" y="-22"></tspan><tspan x="-291.541" y="-22">(</tspan>·, <tspan font-style="italic" x="-277.208" y="-22">in</tspan><tspan x="-266.874" y="-22">)</tspan></text><path d="M764.5 327.198 766.198 325.5 779.5 325.5 779.5 329.802 777.802 331.5 764.5 331.5ZM764.5 327.198 777.802 327.198 779.5 325.5M777.802 327.198 777.802 331.5" stroke="#7F7F7F" stroke-width="1.33333" stroke-miterlimit="8" fill="none" fill-rule="evenodd"/><text font-family="Calibri,Calibri_MSFontService,sans-serif" font-weight="400" font-size="14" transform="translate(788.108 321)">Average<tspan x="0" y="17">[(·, out), (·, out)] </tspan><tspan font-family="Wingdings,Wingdings_MSFontService,sans-serif" x="94.1666" y="17"></tspan><tspan x="111" y="17">(</tspan><tspan x="115.167" y="17">·, </tspan><tspan font-style="italic" x="125.333" y="17">out</tspan>)</text><rect x="488" y="360" width="95" height="51" fill="#737373" fill-opacity="0.301961"/><path d="M270 323.277 370 188 370 295.323 270.75 340C270.667 334.592 270.583 329.185 270 323.277Z" fill="#737373" fill-rule="evenodd" fill-opacity="0.301961"/><path d="M487 187 487 294 583 294 583 291.494 487 187Z" fill="#737373" fill-rule="evenodd" fill-opacity="0.301961"/><path d="M596 290 765 326.75 764.501 331 598.243 296 596 290Z" fill="#737373" fill-rule="evenodd" fill-opacity="0.301961"/><path d="M270.499 321 369 362.098 368.501 380 270 340.415C270.083 334.784 270.166 329.152 270.499 321Z" fill="#737373" fill-rule="evenodd" fill-opacity="0.301961"/><path d="M382 360 474 361.493 474 413 472.508 411.258 382.995 377.418 382 360Z" fill="#737373" fill-rule="evenodd" fill-opacity="0.301961"/><path d="M595 360 692 409.25 692 413 689.756 413 595.997 410.75 595 360Z" fill="#737373" fill-rule="evenodd" fill-opacity="0.301961"/><path d="M764 327 764 327 704 408.264 704 413 764 332.983 764 327Z" fill="#737373" fill-rule="evenodd" fill-opacity="0.301961"/><path d="M321.436 107.5 641.718 107.5C649.198 107.5 655.261 113.573 655.261 121.065L655.261 295.799C655.261 303.291 649.198 309.364 641.718 309.364L321.436 309.364C317.696 309.364 314.311 307.846 311.86 305.391L310.163 302.87 292.64 302.87 292.64 347.575 307.893 347.575 307.893 341.335C307.893 334.804 313.179 329.509 319.7 329.509L737.693 329.509C744.214 329.509 749.5 334.804 749.5 341.335L749.5 493.673C749.5 500.205 744.214 505.5 737.693 505.5L319.7 505.5C313.179 505.5 307.893 500.205 307.893 493.673L307.893 365.472 292.64 365.472 292.64 383.872C292.64 387.558 289.657 390.545 285.977 390.545L200.162 390.545C196.483 390.545 193.5 387.558 193.5 383.872L193.5 288.911C193.5 285.225 196.483 282.238 200.162 282.238L285.977 282.238C287.817 282.238 289.483 282.984 290.688 284.192L291.011 284.973 307.893 284.973 307.893 121.065C307.893 113.573 313.957 107.5 321.436 107.5Z" stroke="#7F7F7F" stroke-width="1.33333" stroke-miterlimit="8" stroke-dasharray="5.33333 4" fill="none" fill-rule="evenodd"/><text font-family="Calibri,Calibri_MSFontService,sans-serif" font-weight="400" font-size="14" transform="translate(309.405 98)">Model <tspan font-family="Times New Roman,Times New Roman_MSFontService,sans-serif" font-style="italic" x="40" y="0">sub_model_1</tspan><tspan x="117.833" y="0">(</tspan><tspan font-style="italic" x="122" y="0">mse</tspan><tspan x="145.167" y="0">, </tspan><tspan font-style="italic" x="151.833" y="0">adam</tspan>, <tspan font-style="italic" x="191" y="0">accuracy</tspan><tspan x="241.167" y="0">)</tspan><tspan x="0" y="431">Model </tspan><tspan font-family="Times New Roman,Times New Roman_MSFontService,sans-serif" font-style="italic" x="40" y="431">sub_model_2 </tspan><tspan x="118.167" y="431">(</tspan><tspan font-style="italic" x="122.333" y="431">mse</tspan><tspan x="145.5" y="431">, </tspan><tspan font-style="italic" x="152.167" y="431">RMSProp</tspan>, <tspan font-style="italic" x="211.167" y="431">accuracy</tspan><tspan x="261.333" y="431">)</tspan><tspan font-family="Times New Roman,Times New Roman_MSFontService,sans-serif" font-style="italic" font-size="15" x="-94.9986" y="267">input</tspan><tspan font-family="Times New Roman,Times New Roman_MSFontService,sans-serif" font-style="italic" font-size="15" x="33.8565" y="339">hidden_2_1</tspan><tspan font-family="Times New Roman,Times New Roman_MSFontService,sans-serif" font-style="italic" font-size="15" x="136.703" y="382">hidden_2_2</tspan><tspan font-family="Times New Roman,Times New Roman_MSFontService,sans-serif" font-style="italic" font-size="15" x="250.221" y="382">hidden_2_3</tspan><tspan font-family="Times New Roman,Times New Roman_MSFontService,sans-serif" font-style="italic" font-size="15" x="355.076" y="382">output_2</tspan><tspan font-family="Times New Roman,Times New Roman_MSFontService,sans-serif" font-style="italic" font-size="15" x="254.783" y="141">output_1</tspan><tspan font-family="Times New Roman,Times New Roman_MSFontService,sans-serif" font-style="italic" font-size="15" x="32.7573" y="41">hidden_1_1</tspan><tspan font-family="Times New Roman,Times New Roman_MSFontService,sans-serif" font-style="italic" font-size="15" x="137.89" y="41">hidden_1_2</tspan><tspan font-family="Times New Roman,Times New Roman_MSFontService,sans-serif" font-style="italic" font-size="15" x="479.502" y="202">output</tspan></text><path d="M179.5 96.8737C179.5 88.3831 186.383 81.5001 194.874 81.5001L935.126 81.5001C943.617 81.5001 950.5 88.3831 950.5 96.8737L950.5 523.126C950.5 531.617 943.617 538.5 935.126 538.5L194.874 538.5C186.383 538.5 179.5 531.617 179.5 523.126Z" stroke="#7F7F7F" stroke-width="1.33333" stroke-miterlimit="8" stroke-dasharray="5.33333 4" fill="none" fill-rule="evenodd"/><text font-family="Calibri,Calibri_MSFontService,sans-serif" font-weight="400" font-size="14" transform="translate(866.09 103)">Model <tspan font-family="Times New Roman,Times New Roman_MSFontService,sans-serif" font-style="italic" x="40" y="0">model</tspan><tspan x="-53.3333" y="17">(</tspan><tspan font-style="italic" x="-49.1667" y="17">mse</tspan><tspan x="-26" y="17">, </tspan><tspan font-style="italic" x="-19.3333" y="17">adam</tspan>, <tspan font-style="italic" x="19.8333" y="17">accuracy</tspan><tspan x="70" y="17">)</tspan></text></g></svg>