<svg width="418" height="83" xmlns="http://www.w3.org/2000/svg" xmlns:xlink="http://www.w3.org/1999/xlink" overflow="hidden"><defs><clipPath id="clip0"><rect x="193" y="437" width="418" height="83"/></clipPath></defs><g clip-path="url(#clip0)" transform="translate(-193 -437)"><path d="M557.5 487.5 595.3 487.5" stroke="#7F7F7F" stroke-width="1.33333" stroke-miterlimit="8" fill="none" fill-rule="evenodd"/><path d="M0 15 15.7212 0 60 0 44.2788 15Z" stroke="#7F7F7F" stroke-width="1.33333" stroke-miterlimit="8" fill="none" fill-rule="evenodd" transform="matrix(-1.83697e-16 -1 -1 1.83697e-16 209.5 517.5)"/><path d="M247.5 473.495 263.495 457.5 307.5 457.5 307.5 501.505 291.505 517.5 247.5 517.5ZM247.5 473.495 291.505 473.495 307.5 457.5M291.505 473.495 291.505 517.5" stroke="#7F7F7F" stroke-width="1.33333" stroke-miterlimit="8" fill="none" fill-rule="evenodd"/><path d="M353.5 476.496 365.496 464.5 398.5 464.5 398.5 498.504 386.504 510.5 353.5 510.5ZM353.5 476.496 386.504 476.496 398.5 464.5M386.504 476.496 386.504 510.5" stroke="#7F7F7F" stroke-width="1.33333" stroke-miterlimit="8" fill="none" fill-rule="evenodd"/><path d="M451.5 476.496 463.496 464.5 496.5 464.5 496.5 498.504 484.504 510.5 451.5 510.5ZM451.5 476.496 484.504 476.496 496.5 464.5M484.504 476.496 484.504 510.5" stroke="#7F7F7F" stroke-width="1.33333" stroke-miterlimit="8" fill="none" fill-rule="evenodd"/><rect x="542.5" y="457.5" width="15" height="60" stroke="#7F7F7F" stroke-width="1.33333" stroke-miterlimit="8" fill="none"/><rect x="595.5" y="479.5" width="15" height="16" stroke="#7F7F7F" stroke-width="1.33333" stroke-miterlimit="8" fill="none"/><path d="M490.5 487.5 542.221 487.5" stroke="#7F7F7F" stroke-width="1.33333" stroke-miterlimit="8" fill="none" fill-rule="evenodd"/><path d="M394.5 487.5 450.75 487.5" stroke="#7F7F7F" stroke-width="1.33333" stroke-miterlimit="8" fill="none" fill-rule="evenodd"/><path d="M301.5 487.5 353.229 487.5" stroke="#7F7F7F" stroke-width="1.33333" stroke-miterlimit="8" fill="none" fill-rule="evenodd"/><path d="M202.5 487.5 247.724 487.5" stroke="#7F7F7F" stroke-width="1.33333" stroke-miterlimit="8" fill="none" fill-rule="evenodd"/><path d="M301.5 491.857C301.5 465.678 338.904 439.5 376.307 439.5 413.711 439.5 451.115 464.5 451.115 489.5" stroke="#7F7F7F" stroke-width="1.33333" stroke-miterlimit="8" fill="none" fill-rule="evenodd"/></g></svg>